<?xml version="1.0" ?><!DOCTYPE svg  PUBLIC '-//W3C//DTD SVG 1.1//EN'  'http://www.w3.org/Graphics/SVG/1.1/DTD/svg11.dtd'><svg enable-background="new 0 0 512 512" height="512px" id="Calque_1" version="1.1" viewBox="0 0 512 512" width="512px" xml:space="preserve" xmlns="http://www.w3.org/2000/svg" xmlns:xlink="http://www.w3.org/1999/xlink"><g><path d="M511.99,460.792c0,28.279-22.919,51.198-51.198,51.198H51.208c-28.269,0-51.198-22.919-51.198-51.198   V51.208c0-28.269,22.93-51.198,51.198-51.198h409.584c28.279,0,51.198,22.929,51.198,51.198V460.792z" fill="#9AC1D0"/><path d="M511.99,419.813c0,28.279-22.919,51.198-51.198,51.198H51.208c-28.269,0-51.198-22.919-51.198-51.198   V51.208c0-28.269,22.93-51.198,51.198-51.198h409.584c28.279,0,51.198,22.929,51.198,51.198V419.813z" fill="#ADD5DF"/><g><path d="M163.394,313.938V157.084h32.819v128.275h77.727v28.578H163.394z" fill="#FFFFFF"/><path d="M281.279,313.938V197.712h28.818v13.939c10.17-15.599,21.949-17.009,34.528-17.009h3.98v31.419    c-2.81-0.46-5.68-0.7-8.51-0.7c-18.899,0-28.109,9.439-28.109,28.109v60.467H281.279z" fill="#FFFFFF"/></g></g><g/><g/><g/><g/><g/><g/></svg>