<?xml version="1.0" ?><!DOCTYPE svg  PUBLIC '-//W3C//DTD SVG 1.1//EN'  'http://www.w3.org/Graphics/SVG/1.1/DTD/svg11.dtd'><svg enable-background="new 0 0 512 512" height="512px" id="Calque_1" version="1.1" viewBox="0 0 512 512" width="512px" xml:space="preserve" xmlns="http://www.w3.org/2000/svg" xmlns:xlink="http://www.w3.org/1999/xlink"><g><g><path d="M511.99,460.792c0,28.279-22.925,51.198-51.198,51.198H51.208c-28.274,0-51.198-22.919-51.198-51.198    V51.208C0.01,22.939,22.934,0.01,51.208,0.01h409.584c28.273,0,51.198,22.929,51.198,51.198V460.792z" fill="#66A9D1"/></g><path d="M511.99,419.813c0,28.279-22.925,51.198-51.198,51.198H51.208c-28.274,0-51.198-22.919-51.198-51.198   V51.208C0.01,22.939,22.934,0.01,51.208,0.01h409.584c28.273,0,51.198,22.929,51.198,51.198V419.813z" fill="#7FB3E1"/><g><path d="M141.779,312.407V155.554h69.218c30.709,0,50.313,22.439,50.313,50.778    c0,28.589-19.604,49.148-50.313,49.148h-36.398v56.927H141.779z M205.772,228.781c18.908,0,26.713-9.68,26.713-23.389    c0-12.99-7.805-22.689-26.713-22.689h-31.174v46.078H205.772z" fill="#FFFFFF"/><path d="M337.422,231.371c-1.44-10.63-7.545-15.35-20.784-15.35c-12.529,0-19.159,2.6-19.159,9.92    c0,6.38,6.63,9.699,18.899,12.999c40.628,11.11,53.843,13.22,53.843,40.409c0,20.779-17.675,36.128-51.448,36.128    c-33.334,0-54.828-15.819-55.333-40.408h31.679c0,10.88,9.689,17.249,23.404,17.249c11.569,0,21.249-3.529,21.249-11.079    c0-8.52-6.13-11.35-18.639-14.18c-45.129-9.93-53.429-21.509-53.429-41.118c0-17.479,13.48-32.839,49.898-32.839    c33.269,0,47.918,14.43,49.328,38.269H337.422z" fill="#FFFFFF"/></g></g><g/><g/><g/><g/><g/><g/></svg>